<svg xmlns="http://www.w3.org/2000/svg" width="3000" height="3000" fill="none" viewBox="0 0 3000 3000" id="business-meeting"><path fill="#E7E8FF" d="M2157.49 923.953C2157.49 965.854 2072.99 960.238 2014.49 943.745C1929.98 923.953 1871.48 884.369 1890.98 798.605C1890.98 729.334 1959.24 740.8 2040.49 772.216C2108.74 798.605 2157.49 882.052 2157.49 923.953Z"></path><path fill="#E7E8FF" d="M196.072 2065.21C196.072 2156.71 238.029 2246.01 289.573 2319.9C369.685 2434.74 512.068 2478.35 652.029 2478.35H2321.02C2418.01 2478.35 2482.24 2341.26 2485.42 2244.26C2490.14 2100.07 2572.53 1936.72 2548.5 1694.08C2511.04 1315.95 2256.32 1200.41 1990.36 1056.87C1724.4 913.318 1896.71 703.247 1439.71 577.204C982.711 451.162 499.489 867.803 514.472 1256.43C529.456 1645.06 196.072 1701.08 196.072 2065.21Z"></path><path fill="#fff" d="M1241.11 2478.35H1552.19C1720.92 2417.66 1889.65 2137.97 1734.1 2166.99C1578.56 2196.02 1425.65 2182.83 1628.65 2082.56C1831.65 1982.29 1720.92 1905.78 1628.65 1913.69C1536.38 1921.61 1552.19 1858.28 1589.1 1736.91C1626.01 1615.53 1589.1 1504.71 1486.29 1504.71C1383.47 1504.71 1465.2 1805.51 1383.47 1826.62C1301.74 1847.73 1341.29 1707.88 1241.11 1736.91C1140.92 1765.93 1304.38 2111.58 1241.11 2082.56C1177.83 2053.54 1185.74 1913.69 1072.38 2019.23C981.689 2103.67 1147.08 2360.49 1241.11 2478.35Z"></path><path fill="#fff" d="M891.523 621.27C891.523 592.797 914.604 569.716 943.077 569.716H1855.39C1883.86 569.716 1906.94 592.797 1906.94 621.27V1791.59C1906.94 1820.07 1883.86 1843.15 1855.39 1843.15H943.077C914.604 1843.15 891.523 1820.07 891.523 1791.59V621.27Z"></path><path fill="#032068" fill-rule="evenodd" d="M883.796 621.27C883.796 588.53 910.337 561.989 943.077 561.989H1855.39C1888.13 561.989 1914.67 588.53 1914.67 621.27V1791.59C1914.67 1824.33 1888.13 1850.87 1855.39 1850.87H943.077C910.337 1850.87 883.796 1824.33 883.796 1791.59V621.27ZM943.077 577.443C918.872 577.443 899.25 597.065 899.25 621.27V1791.59C899.25 1815.8 918.872 1835.42 943.077 1835.42H1855.39C1879.59 1835.42 1899.21 1815.8 1899.21 1791.59V621.27C1899.21 597.065 1879.59 577.443 1855.39 577.443H943.077Z" clip-rule="evenodd"></path><path fill="#032068" d="M891.523 621.27C891.523 592.797 914.604 569.716 943.077 569.716H1855.39C1883.86 569.716 1906.94 592.797 1906.94 621.27V744.501H891.523V621.27Z"></path><path fill="#fff" d="M1049.66 657.108C1049.66 677.793 1032.89 694.562 1012.21 694.562 991.524 694.562 974.755 677.793 974.755 657.108 974.755 636.423 991.524 619.654 1012.21 619.654 1032.89 619.654 1049.66 636.423 1049.66 657.108zM1174.52 657.108C1174.52 677.793 1157.75 694.562 1137.06 694.562 1116.38 694.562 1099.61 677.793 1099.61 657.108 1099.61 636.423 1116.38 619.654 1137.06 619.654 1157.75 619.654 1174.52 636.423 1174.52 657.108zM1299.36 657.108C1299.36 677.793 1282.59 694.562 1261.9 694.562 1241.22 694.562 1224.45 677.793 1224.45 657.108 1224.45 636.423 1241.22 619.654 1261.9 619.654 1282.59 619.654 1299.36 636.423 1299.36 657.108z"></path><path fill="#E7E8FF" fill-rule="evenodd" d="M1565.69 885.397H1037.18V869.943H1565.69V885.397zM1565.69 1426.4H1037.18V1410.94H1565.69V1426.4zM1565.69 1576.21H1037.18V1560.76H1565.69V1576.21z" clip-rule="evenodd"></path><path fill="#F4AD5E" fill-rule="evenodd" d="M1041.94 1045.75C1041.94 1013.01 1068.48 986.466 1101.22 986.466H1614.02C1646.76 986.466 1673.3 1013.01 1673.3 1045.75V1242.27C1673.3 1275.01 1646.76 1301.55 1614.02 1301.55H1101.22C1068.48 1301.55 1041.94 1275.01 1041.94 1242.27V1045.75ZM1101.22 1001.92C1077.02 1001.92 1057.39 1021.54 1057.39 1045.75V1242.27C1057.39 1266.47 1077.02 1286.1 1101.22 1286.1H1614.02C1638.23 1286.1 1657.85 1266.47 1657.85 1242.27V1045.75C1657.85 1021.54 1638.23 1001.92 1614.02 1001.92H1101.22Z" clip-rule="evenodd"></path><path fill="#F4AD5E" d="M1349.3 1703.27C1349.3 1674.8 1372.38 1651.72 1400.86 1651.72H1405.95C1434.42 1651.72 1457.5 1674.8 1457.5 1703.27V1708.36C1457.5 1736.83 1434.42 1759.92 1405.95 1759.92H1400.86C1372.38 1759.92 1349.3 1736.83 1349.3 1708.36V1703.27Z"></path><path fill="#E7E8FF" fill-rule="evenodd" d="M1541.33 1703.27C1541.33 1670.53 1567.87 1643.99 1600.61 1643.99H1605.7C1638.44 1643.99 1664.98 1670.53 1664.98 1703.27V1708.36C1664.98 1741.1 1638.44 1767.64 1605.7 1767.64H1600.61C1567.87 1767.64 1541.33 1741.1 1541.33 1708.36V1703.27ZM1600.61 1659.44C1576.41 1659.44 1556.78 1679.07 1556.78 1703.27V1708.36C1556.78 1732.57 1576.41 1752.19 1600.61 1752.19H1605.7C1629.91 1752.19 1649.53 1732.57 1649.53 1708.36V1703.27C1649.53 1679.07 1629.91 1659.44 1605.7 1659.44H1600.61Z" clip-rule="evenodd"></path><path fill="#F4AD5E" fill-rule="evenodd" d="M1270.07 1074.48C1260.77 1059.81 1239.23 1060.19 1230.45 1075.19L1165.17 1186.71C1158.24 1198.55 1145.54 1205.84 1131.81 1205.84H1049.67V1190.38H1131.81C1140.05 1190.38 1147.67 1186.01 1151.83 1178.9L1217.11 1067.38C1231.74 1042.4 1267.62 1041.76 1283.13 1066.21L1340.84 1157.21C1349.39 1170.7 1368.69 1171.72 1378.61 1159.2L1425.15 1100.53C1439.76 1082.11 1467.28 1080.88 1483.47 1097.92L1528.86 1145.7C1533.24 1150.32 1539.32 1152.93 1545.68 1152.93H1661.41V1168.38H1545.68C1535.09 1168.38 1524.96 1164.03 1517.66 1156.35L1472.26 1108.57C1462.55 1098.34 1446.03 1099.08 1437.26 1110.13L1390.72 1168.81C1374.19 1189.65 1342.03 1187.96 1327.78 1165.49L1270.07 1074.48Z" clip-rule="evenodd"></path><path fill="#032068" d="M1385.42 2474.4C1335.48 2384.51 1114.92 2322.26 1010.88 2301.46L923.3 2474.4H1385.42Z"></path><path fill="#EFCB96" d="M634.468 1305.41L610.681 1379.89L751.935 1432.68L771.383 1325.19C794.112 1327.8 846.043 1312.01 871.939 1228.02C904.308 1123.03 861.653 990.124 771.751 976.758C681.85 963.392 616.26 1039.17 599.852 1137.87C586.726 1216.82 617.46 1282.46 634.468 1305.41Z"></path><path fill="#032068" d="M633.927 1301.28C648.432 1309.45 708.157 1312.51 736.206 1313.02C756.836 1310.31 767.045 1292.18 779.752 1261.12C789.918 1236.28 773.786 1215.74 764.449 1208.57C707.343 1157.31 765.988 1107.63 784.44 1105.21C803.202 1102.74 805.801 1139 806.26 1171.88C806.412 1182.76 818.903 1184.84 823.09 1174.8C832.571 1152.06 843.378 1128.35 852.257 1110.63C860.416 1094.35 875.607 1083.68 892.066 1075.89C977.93 1035.28 973.038 956.916 951.671 940.514C928.329 922.596 915.621 953.649 832.345 926.82C749.069 899.991 628.329 907.468 575 1044.6C521.671 1181.72 615.795 1291.07 633.927 1301.28Z"></path><path fill="#EFCB96" d="M1689.2 2126.67C1667.63 2034.33 1546.63 2016.2 1488.83 2018.69L1481.13 2126.67H1689.2Z"></path><path fill="#F4AD5E" d="M553.106 1356.79C483.192 1410.05 396.161 1555.58 365.44 1660.91C289.049 1922.83 187.046 2433.83 455.165 2474.4C682.989 2474.67 872.581 2474.51 938.9 2474.4C969.892 2427.66 1027.26 2320.79 1008.79 2259.84L998.391 2168.29C1120.17 2221.75 1339.32 2184.24 1464.97 2150.9C1488.98 2144.53 1504.02 2121.26 1501.15 2096.58L1490.31 2003.39C1487.41 1978.45 1466.79 1959.33 1441.77 1957.21C1170.03 1934.22 1099.17 1843.37 1035.84 1756.3C969.26 1664.74 844.414 1464.99 790.314 1419.21C736.214 1373.43 640.499 1290.2 553.106 1356.79Z"></path><path fill="#032068" d="M677.957 1852.01C757.858 2011.81 894.357 2122.51 1002.56 2172.45L1006.72 2251.52C773.672 2111.69 690.441 1926.92 677.957 1852.01Z"></path><path fill="#032068" d="M1044.17 2184.93C1020.59 2133.61 937.635 2028.46 794.479 2018.47C837.481 2067.02 947.623 2168.29 1044.17 2184.93Z"></path><path fill="#fff" d="M208.933 2213.06C255.615 2432.91 363.15 2466.75 434.008 2466.75H950.847C1042.54 2466.75 1030.04 2437.91 1030.04 2412.93C1000.86 2288.01 930.006 2238.05 717.435 2175.59C504.864 2113.13 459.016 1863.31 388.159 1700.92C317.302 1538.53 125.572 1534.37 100.564 1567.68C75.5552 1600.99 150.58 1938.25 208.933 2213.06Z"></path><path fill="#032068" fill-rule="evenodd" d="M119.777 1564.46C112.62 1567 108.547 1569.91 106.743 1572.32C106.252 1572.97 105.352 1574.84 104.616 1578.8C103.912 1582.6 103.482 1587.6 103.372 1593.84C103.153 1606.31 104.221 1622.92 106.421 1643.09C110.817 1683.39 119.63 1737.02 131.084 1798.39C150.007 1899.78 176.039 2021.77 200.981 2138.66C206.225 2163.23 211.42 2187.58 216.491 2211.46C239.613 2320.35 277.561 2382.02 317.458 2416.51C357.254 2450.91 399.867 2459.03 434.008 2459.03H950.846C973.453 2459.03 989.121 2457.24 999.933 2454.39C1010.73 2451.54 1016.04 2447.8 1018.81 2444.36C1021.53 2440.99 1022.62 2436.92 1022.84 2431.55C1022.95 2428.84 1022.84 2425.98 1022.68 2422.81C1022.66 2422.37 1022.63 2421.93 1022.61 2421.48C1022.48 2419.05 1022.34 2416.44 1022.32 2413.84C1008.03 2353.23 983.858 2311.47 937.877 2277.02C891.152 2242.01 821.488 2214.22 715.257 2183C606.101 2150.93 540.152 2070.75 492.792 1979.28C469.119 1933.56 449.968 1884.79 432.366 1837.51C428.484 1827.08 424.681 1816.73 420.922 1806.51C407.582 1770.22 394.808 1735.48 381.076 1704.01C346.759 1625.36 283.238 1585.02 225.038 1568.34C195.902 1559.99 168.301 1557.63 146.685 1559.31C135.868 1560.15 126.751 1561.99 119.777 1564.46ZM229.297 1553.48C290.928 1571.15 358.701 1614.09 395.241 1697.83C409.175 1729.76 422.161 1765.09 435.527 1801.45C439.262 1811.6 443.026 1821.84 446.85 1832.11C464.415 1879.3 483.298 1927.33 506.516 1972.18C552.937 2061.83 616.198 2137.79 719.613 2168.18C825.953 2199.42 898.003 2227.84 947.143 2264.65C996.815 2301.87 1022.65 2347.32 1037.56 2411.17L1037.77 2412.04V2412.93C1037.77 2415.38 1037.9 2417.87 1038.04 2420.6C1038.07 2421.06 1038.09 2421.54 1038.11 2422.02C1038.28 2425.21 1038.43 2428.7 1038.28 2432.2C1037.98 2439.27 1036.46 2447.1 1030.84 2454.06C1025.28 2460.96 1016.53 2465.99 1003.88 2469.33C991.244 2472.66 974.088 2474.48 950.846 2474.48H434.008C397.291 2474.48 350.708 2465.68 307.351 2428.2C264.095 2390.8 224.935 2325.63 201.374 2214.67C196.312 2190.83 191.122 2166.51 185.883 2141.96C160.94 2025.07 134.855 1902.83 115.891 1801.23C104.42 1739.76 95.5193 1685.66 91.058 1644.76C88.8299 1624.34 87.6838 1606.99 87.9201 1593.56C88.0382 1586.86 88.5034 1580.93 89.4202 1575.99C90.3042 1571.22 91.7485 1566.55 94.3837 1563.04C98.8317 1557.11 106.221 1552.87 114.612 1549.9C123.188 1546.85 133.706 1544.82 145.487 1543.9C169.068 1542.07 198.517 1544.66 229.297 1553.48Z" clip-rule="evenodd"></path><path fill="#fff" d="M2752.26 2138.35H1312.37C1284.79 2138.35 1262.43 2160.7 1262.43 2188.29C1262.43 2215.87 1284.79 2238.22 1312.37 2238.22H2752.26C2779.84 2238.22 2802.2 2215.87 2802.2 2188.29C2802.2 2160.7 2779.84 2138.35 2752.26 2138.35Z"></path><path fill="#032068" fill-rule="evenodd" d="M1254.7 2188.29C1254.7 2156.44 1280.52 2130.62 1312.37 2130.62H2752.26C2784.11 2130.62 2809.93 2156.44 2809.93 2188.29C2809.93 2220.13 2784.11 2245.95 2752.26 2245.95H1312.37C1280.52 2245.95 1254.7 2220.13 1254.7 2188.29ZM1312.37 2146.07C1289.06 2146.07 1270.16 2164.97 1270.16 2188.29C1270.16 2211.6 1289.06 2230.5 1312.37 2230.5H2752.26C2775.57 2230.5 2794.47 2211.6 2794.47 2188.29C2794.47 2164.97 2775.58 2146.07 2752.26 2146.07H1312.37Z" clip-rule="evenodd"></path><path fill="#fff" d="M1417.9 2467.1L1470.99 2243.01H1603.36L1504.77 2467.1H1417.9Z"></path><path fill="#032068" fill-rule="evenodd" d="M1464.88 2235.28H1615.2L1509.81 2474.82H1408.13L1464.88 2235.28ZM1477.1 2250.73L1427.68 2459.37H1499.73L1591.52 2250.73H1477.1Z" clip-rule="evenodd"></path><path fill="#fff" d="M2631.08 2467.1L2580.5 2243.01H2445.63L2542.57 2467.1H2631.08Z"></path><path fill="#032068" fill-rule="evenodd" d="M2588.75 2232.7H2429.93L2535.8 2477.41H2643.98L2588.75 2232.7ZM2572.26 2253.32L2618.18 2456.79H2549.34L2461.32 2253.32H2572.26Z" clip-rule="evenodd"></path><path fill="#F4AD5E" d="M641.76 552.188L613.719 588.357C612.012 590.558 609.23 591.616 606.505 591.102L571.846 584.562C564.39 583.155 559.891 592.593 565.646 597.571L592.885 621.133C594.874 622.853 595.813 625.502 595.356 628.102L588.522 666.953C587.238 674.257 596.167 678.778 601.222 673.383L629.203 643.526C630.846 641.773 633.227 640.926 635.599 641.252L667.981 645.693C675.276 646.693 679.407 637.538 673.86 632.663L649.778 611.498C647.844 609.799 646.92 607.213 647.335 604.662L654.928 557.993C656.17 550.36 646.487 546.091 641.76 552.188zM2055.85 553.625L2036.94 557.711C2035.79 557.96 2034.62 557.547 2033.91 556.641L2024.86 545.123C2022.91 542.645 2018.86 544.476 2019.28 547.647L2021.24 562.656C2021.39 563.752 2020.94 564.863 2020.07 565.58L2007.07 576.287C2004.62 578.3 2006.16 582.185 2009.26 581.812L2026.38 579.75C2027.39 579.629 2028.37 580.001 2029.03 580.75L2037.95 590.972C2039.96 593.275 2043.81 591.435 2043.44 588.354L2041.79 574.977C2041.66 573.903 2042.09 572.816 2042.94 572.104L2058.36 559.074C2060.89 556.943 2059.04 552.936 2055.85 553.625z"></path><path fill="#EFCB96" d="M2306.94 941.357L2290.3 1020.43V1070.36L2327.75 1103.66L2440.11 1091.17V1016.26L2435.95 928.871C2481.72 870.609 2498.37 758.249 2448.43 699.987C2398.49 641.726 2269.49 633.403 2244.52 770.733C2224.54 880.598 2277.81 930.259 2306.94 941.357Z"></path><path fill="#032068" d="M2036.44 2481.13L2079.07 2015.03H2675.9L2735.58 2481.13H2036.44Z"></path><path fill="#EFCB96" d="M1636.93 1145.27C1636.93 1158.59 1650.8 1181.34 1657.74 1191.05L1649.42 1240.99L1586.99 1249.31C1570.35 1228.5 1520.41 1220.18 1507.92 1186.89C1497.94 1160.25 1525.96 1131.4 1541.22 1124.46L1489.49 1052.05C1483.44 1043.57 1484.86 1031.87 1492.77 1025.1C1501.16 1017.91 1513.77 1018.83 1521.02 1027.17L1591.16 1107.82C1591.16 1110.59 1593.65 1110.32 1603.64 1087.01C1616.12 1057.88 1628.61 1070.36 1636.93 1074.53C1645.26 1078.69 1636.93 1128.63 1636.93 1145.27Z"></path><path fill="#fff" d="M2356.88 1062.04C2300.28 1062.04 2286.14 1017.65 2286.14 995.457C2246.18 995.457 2220.02 1014.96 2211.69 1020.51L2144.64 1211.86L2132.16 2019.2C2271.99 2062.48 2448.44 2037.23 2519.18 2019.2L2564.96 1024.59C2537.45 1007.08 2497.26 999.439 2468.38 996.719C2454.25 995.388 2442.09 1005.39 2434.87 1017.61C2422.32 1038.85 2397.79 1062.04 2356.88 1062.04Z"></path><path fill="#032068" fill-rule="evenodd" d="M2218.14 1025.48L2152.35 1213.23L2139.98 2013.48C2273.4 2052.78 2439.24 2030.57 2511.73 2013.08L2557.03 1028.81C2531.25 1013.92 2494.89 1006.98 2467.66 1004.41C2457.85 1003.49 2448.06 1010.48 2441.52 1021.54C2427.99 1044.44 2401.25 1069.77 2356.88 1069.77C2326.26 1069.77 2306.27 1057.61 2294.15 1041.77C2284.63 1029.33 2280.25 1015.01 2278.89 1003.41C2248.28 1005.36 2227.39 1019.21 2218.14 1025.48ZM2209.09 1012.94C2219.05 1006.16 2246.14 987.729 2286.14 987.729H2293.86V995.457C2293.86 1005.22 2297.04 1020.11 2306.42 1032.38C2315.52 1044.28 2330.91 1054.31 2356.88 1054.31C2394.34 1054.31 2416.65 1033.26 2428.22 1013.68C2436.13 1000.3 2450.65 987.287 2469.11 989.025C2498.27 991.773 2539.99 999.541 2569.11 1018.07L2572.88 1020.47L2526.64 2025.27L2521.09 2026.68C2449.78 2044.86 2271.69 2070.47 2129.87 2026.58L2124.34 2024.87L2136.94 1210.48L2205.26 1015.52L2207.41 1014.08C2207.9 1013.75 2208.46 1013.37 2209.09 1012.94Z" clip-rule="evenodd"></path><path fill="#F4AD5E" d="M2211.22 1428.26C2217.05 1326.37 2248.74 1142.83 2269.6 1033.41 2274.7 986.987 2292.15 983.662 2235.78 999.863 2038.39 1056.59 1990.62 1316.16 1928.24 1320.06 1883.84 1322.83 1776.59 1248.69 1706.77 1195.01 1685.77 1178.87 1655.96 1180.34 1637.23 1199.07L1592.61 1243.7C1578.94 1257.36 1573.85 1277.54 1581.44 1295.31 1633 1416.19 1777.97 1606.98 1869.98 1652.98 1949.88 1692.93 2014.24 1636.33 2036.44 1603.04 2035.05 1709.85 2033.11 1937.63 2036.44 1994.23 2040.6 2064.97 2036.44 2123.23 2086.38 2131.56 2136.32 2139.88 2232.03 2123.23 2232.03 2106.59 2232.03 2089.94 2202.9 1573.91 2211.22 1428.26zM2410.98 1424.1C2414.04 1347.57 2452.51 1140.9 2475.94 1023.99 2481.81 994.714 2479.47 992.948 2510.25 1001.5 2725.93 1061.43 2897.18 1430.54 2881.23 1578.07 2867.92 1701.25 2770.26 1895.74 2723.09 1977.58 2725.87 2027.52 2726.42 2129.06 2706.45 2135.72 2681.48 2144.04 2465.08 2135.72 2452.59 2110.75 2440.11 2085.78 2406.82 1528.13 2410.98 1424.1z"></path><path fill="#fff" d="M2458.31 1986.98C2432.17 1975.68 2420.13 1945.34 2431.43 1919.2L2513.4 1729.44C2524.7 1703.3 2555.04 1691.27 2581.18 1702.56L2859.82 1822.93C2885.96 1834.22 2898 1864.57 2886.7 1890.7L2804.73 2080.47C2793.43 2106.61 2763.09 2118.64 2736.95 2107.35L2458.31 1986.98Z"></path><path fill="#032068" fill-rule="evenodd" d="M2455.24 1994.07C2425.19 1981.08 2411.35 1946.19 2424.33 1916.14L2506.31 1726.37C2519.29 1696.32 2554.19 1682.48 2584.24 1695.46L2862.89 1815.84C2892.94 1828.82 2906.78 1863.71 2893.8 1893.77L2811.82 2083.53C2798.83 2113.59 2763.94 2127.43 2733.89 2114.44L2455.24 1994.07ZM2438.52 1922.27C2428.92 1944.49 2439.15 1970.28 2461.37 1979.88L2740.02 2100.26C2762.24 2109.86 2788.03 2099.62 2797.63 2077.4L2879.61 1887.64C2889.21 1865.42 2878.98 1839.62 2856.76 1830.03L2578.11 1709.65C2555.89 1700.05 2530.1 1710.28 2520.5 1732.5L2438.52 1922.27Z" clip-rule="evenodd"></path><path fill="#032068" d="M2860.43 1428.26C2834.07 1469.87 2793.84 1584.73 2843.78 1711.24 2868.75 1664.08 2907.04 1541.45 2860.43 1428.26zM1790.91 1590.56C1831.14 1580.85 1932.4 1574.74 2015.64 1628.01 1982.34 1665.47 1890.79 1710.41 1790.91 1590.56z"></path><path fill="#032068" d="M2057.24 1370C2048.92 1444.9 2040.6 1540.62 2036.44 1611.36C2016.46 1634.67 1967.08 1657.14 1944.88 1665.46C2001.48 1602.21 2032.27 1461.55 2057.24 1370Z"></path><path fill="#EFCB96" d="M2536.36 2007.93C2539.69 1997.94 2573.81 1964.93 2590.46 1949.67C2625.14 1945.51 2692 1949.67 2682.01 1999.61C2669.53 2062.03 2657.04 2111.97 2590.46 2091.16C2537.19 2074.52 2543.29 2039.84 2553 2024.58C2546.07 2023.19 2533.03 2017.92 2536.36 2007.93Z"></path><path fill="#fff" d="M2376.61 2480.96L2337.59 2254.86V2480.96H2376.61Z"></path><path fill="#032068" d="M2431.79 845.641L2435.95 920.549 2436.97 1002.44C2438.51 1002.37 2443.18 995.337 2444.7 995.301 2519.21 993.531 2581.36 1031.13 2603.11 1048.81 2632.24 928.12 2531.67 845.641 2531.67 799.864 2531.67 754.087 2510.86 612.595 2369.37 608.434 2263.23 605.312 2234.18 692.187 2232.11 754.493 2231.9 760.829 2237.69 765.49 2243.64 763.295 2272.14 752.776 2308.57 723.512 2330.24 700.515 2336.27 694.118 2348.7 696.164 2352.63 704.028 2362.64 724.097 2377.3 742.681 2387.79 755.381 2389.33 757.24 2390.17 759.552 2390.21 761.964 2390.44 773.763 2391.67 789.773 2393.56 805.586 2394.89 816.676 2410.31 816.635 2413.79 806.023 2417.71 794.092 2422.44 782.681 2427.63 774.895 2444.27 749.925 2469.24 770.733 2469.24 799.864 2469.24 823.169 2444.27 840.092 2431.79 845.641zM2207.06 1012.1C2223.71 995.457 2241.74 913.614 2248.68 874.772 2255.34 908.065 2290.3 933.034 2306.94 941.357L2294.02 1002.44 2290.15 990.851C2256.86 990.851 2222.32 1005.17 2207.06 1012.1z"></path><path fill="#F4AD5E" d="M2665.17 1987.93L2604.88 1964.18C2581.75 1955.06 2568.42 1930.75 2573.1 1906.33C2586.1 1838.59 2602.71 1749.63 2614.89 1678.39L2822.97 1769.5C2799.67 1832.76 2755 1920.71 2735.58 1956.77L2725.75 1970.28C2711.94 1989.28 2687.02 1996.54 2665.17 1987.93Z"></path><path fill="#032068" d="M2631.54 1561.43C2631.54 1524.8 2566.34 1417.16 2535.82 1353.35 2602.86 1552.67 2606.76 1599.48 2575.55 1895.96 2595.06 1798.44 2631.54 1578.9 2631.54 1561.43zM2372.7 940.197C2344.61 952.68 2316.79 945.398 2306.38 940.197L2298.58 979.207C2336.03 979.207 2363.6 953.2 2372.7 940.197z"></path></svg>